Release Notes: 


[url=http://imgboot.com/image/edman74/megamanposter.jpg][img]http://imgboot.com/images/edman74/megamanposter.jpg[/img][/url]


IMBD:http://www.imdb.com/title/tt1001526/


[color=red]DETAILS:[/color]

General
Complete name                    : Megamind  SCR XViD AC3 -Chaos.avi
Format                           : AVI
Format/Info                      : Audio Video Interleave
Format profile                   : OpenDML
File size                        : 1.12 GiB
Duration                         : 1h 35mn
Overall bit rate                 : 1 682 Kbps
Writing application              : My Secret

Video
ID                               : 0
Format                           : MPEG-4 Visual
Format profile                   : Advanced Simple@L5
Format settings, BVOP            : Yes
Format settings, QPel            : No
Format settings, GMC             : No warppoints
Format settings, Matrix          : Default (H.263)
Muxing mode                      : Packed bitstream
Codec ID                         : XVID
Codec ID/Hint                    : XviD
Duration                         : 1h 25mn
Bit rate                         : 1 669 Kbps
Width                            : 720 pixels
Height                           : 400 pixels
Display aspect ratio             : 16:9
Frame rate                       : 29.970 fps
Original frame rate              : 25.000 fps
Color space                      : YUV
Chroma subsampling               : 4:2:0
Bit depth                        : 8 bits
Scan type                        : Progressive
Bits/(Pixel*Frame)               : 0.193
Stream size                      : 1 015 MiB (88%)
Writing library                  : XviD 1.2.1 (UTC 2008-12-04)

Audio
ID                               : 1
Format                           : AC-3
Format/Info                      : Audio Coding 3
Mode extension                   : CM (complete main)
Codec ID                         : 2000
Duration                         : 1h 35mn
Bit rate mode                    : Constant
Bit rate                         : 192 Kbps
Channel(s)                       : 2 channels
Channel positions                : Front: L R
Sampling rate                    : 48.0 KHz
Bit depth                        : 16 bits
Stream size                      : 131 MiB (11%)
Alignment                        : Aligned on interleaves
Interleave, duration             : 33 ms (1.00 video frame)






[color=red]SOURCES:[/color]

IMAGiNE... thanks guys


[color=red]NOTES:[/color]

i did the usual ran it trhu and RGB eq, adjusted gamma, brightness, hue, saturation and sharpened...


[color=red]SCREENS:[/color] 
[url=http://imgboot.com/image/edman74/vlcsnap2011011023h10m02s193.png][img]http://imgboot.com/images/edman74/vlcsnap2011011023h10m02s193.png[/img][/url]
[url=http://imgboot.com/image/edman74/vlcsnap2011011023h10m10s252.png][img]http://imgboot.com/images/edman74/vlcsnap2011011023h10m10s252.png[/img][/url]
[url=http://imgboot.com/image/edman74/vlcsnap2011011023h10m17s88.png][img]http://imgboot.com/images/edman74/vlcsnap2011011023h10m17s88.png[/img][/url]
[url=http://imgboot.com/image/edman74/vlcsnap2011011023h10m23s136.png][img]http://imgboot.com/images/edman74/vlcsnap2011011023h10m23s136.png[/img][/url]

[color=red]Trackers:[/color]
 
http://exodus.1337x.org/announce
 
http://tracker.publicbt.com:80/announce
 
http://pow7.com/announce

 
http://genesis.1337x.org:1337/announce


[color=red]Scanned with:[/color] KIS 2011.....Clean             